<svg id="b8dd6c17-422d-4e21-aa79-6939237ed518" data-name="Layer 1" xmlns="http://www.w3.org/2000/svg" viewBox="0 0 3239.22 754.21">
  <path fill="white" d="M77,0q0,127,0,254c0,1.12.23,2.24.39,3.74,6.33-1.74,12.33-3.6,18.43-5,15.52-3.58,31.34-2.75,47.09-2.77q61.42-.06,122.85,0c38.63,0,77.31-1.18,115.89.25,48.14,1.8,83.15,25.66,104.88,68.62,8.78,17.35,12.43,35.91,12.4,55.39-.13,85.54.14,171.09-.14,256.63C498.61,672,481.6,705.08,449,730c-18.87,14.45-40.42,22.31-64.23,22.9-23.13.57-46.28.53-69.42.56q-95.94.09-191.89,0c-25.4,0-49-6.27-70-21-26-18.26-42.53-43-50-73.79L0,644.26V0ZM250.46,677h95.43c42.88,0,76.47-35.62,76.83-77.17.54-64.39.37-128.8-.08-193.2a81,81,0,0,0-5.44-28.1c-12.74-32.86-40.89-50.53-76.61-50.36-57.79.28-115.59.09-173.38.06-11.62,0-23.32-.5-34.53,3.2C98.42,342.79,77,372.6,77,408.76q-.08,89.16-.14,178.3c0,13.87.74,27.44,5.77,40.65,11,28.81,40.11,49.33,70.91,49.33ZM1599.32,503.63c0,42,.56,83.9-.15,125.84-.81,48.07-21.76,85.08-63.79,109.42-18,10.42-37.75,14.53-58.31,14.56q-127.46.21-254.9,0c-64.26,0-109.93-46.87-119.33-99.71a152.88,152.88,0,0,1-2.41-26.23c-.18-83.72-.08-167.45-.12-251.18,0-25.87,6-50.05,20.52-71.65,18.61-27.69,43.93-45.74,77.05-52.35,16.95-3.38,34-2.26,51.11-2.32,40.79-.15,81.57-.05,122.36-.06,36.65,0,73.31-.4,110,.05,53.72.66,102.23,40.16,113.86,92.73a171.82,171.82,0,0,1,4,35C1599.6,419.74,1599.32,461.69,1599.32,503.63Zm-76.11-.92c0-31.46.24-62.91-.08-94.36-.26-26.09-10.41-47.68-31.06-64.06-16.52-13.1-35.62-16.24-56.14-16.1-57.63.39-115.26.26-172.89,0-16-.07-31.52,1.55-45.56,9.91-26.51,15.76-40.07,39.41-40.28,70-.42,61.57-.15,123.14-.1,184.72,0,5,.26,10,.7,14.92,3.44,38.07,37.59,69.3,75.75,69.31,64.29,0,128.59.22,192.88-.24a79.85,79.85,0,0,0,27.57-5.48c30.08-11.65,49.07-40.91,49.18-74.25C1523.29,565.62,1523.21,534.16,1523.21,502.71Zm-472.88-1.07c0,41.59-.08,83.19,0,124.79.08,31.73-8.95,60.3-29.69,84.56-22,25.74-50,41.34-84,41.76-78.28,1-156.58.65-234.87.71-14.47,0-29,.11-43.39-1.14-27-2.35-50.11-13.86-69.34-32.81-25.87-25.51-37.66-56.67-37.55-92.91q.39-127.64,0-255.25c-.14-49.21,32.51-96.6,78.8-113.82,18.63-6.94,37.89-7.66,57.4-7.6,41.12.14,82.24,0,123.36,0,40.47,0,81-.72,121.4.17,54,1.19,95.94,36.66,111.53,84a133.54,133.54,0,0,1,6.3,42.16v125.3ZM800.45,677q49,0,98,0a67.57,67.57,0,0,0,33-8.4c29.08-16.11,42.73-41.43,42.85-74.12.23-61.1.12-122.19,0-183.28,0-15-2.74-29.43-10.4-42.6-14.89-25.58-37-39.91-66.76-40.15-62.78-.5-125.56.23-188.34-.36-45.88-.44-80.2,35.31-80.59,77.79-.59,64.59-.18,129.18.11,193.76a80.5,80.5,0,0,0,3.28,21.08c9.17,32.52,39.94,57.17,75.85,56.44C738.46,676.54,769.46,677,800.45,677ZM3239.11,501.92V634.23c0,53.16-38.09,102.25-89.89,115a137.35,137.35,0,0,1-32,4.09q-126.93.48-253.86.16c-61.8,0-112.1-43.73-120.86-104.89a127.12,127.12,0,0,1-1.36-17.85c-.08-86.71-.86-173.43.26-260.13.63-49.08,24.37-85.62,68.13-108.54,19.2-10.06,40-12.27,61.39-12.17,43.27.2,86.54.06,129.81.06,40.3,0,80.61-.92,120.87.23,45,1.29,79.13,22.58,101.87,61.44,11,18.74,15.94,39.1,15.76,61C3238.86,415.71,3239.11,458.82,3239.11,501.92Zm-421.51.79q0,46.68,0,93.36c0,13.17,2.36,25.84,8.5,37.53,13.91,26.49,35.64,42.74,65.79,43.16,65.79.91,131.59.55,197.38.13,21.9-.14,40.05-9.81,54.54-26.17,14.91-16.82,20.19-37,20.19-58.9,0-52.94.23-105.88-.1-158.81-.1-15,0-30.43-3.08-45-7.35-35.07-39.58-59.64-75.19-59.63-59.28,0-118.56-.15-177.84-.15-12.27,0-24.58-.28-36.43,3.92-32.68,11.6-53.59,40.89-53.72,75.72C2817.51,439.46,2817.6,471.09,2817.6,502.71ZM2193,501.89c0-43.62-.22-87.23.05-130.84.39-61.52,47.76-116.56,111.51-120.39,22.31-1.34,44.75-.59,67.13-.63q61.18-.1,122.36,0c26.54,0,53.1-.7,79.61.12,38.9,1.2,70.36,17.72,93.64,49,16.74,22.49,24.4,48,24.39,76q-.07,126.58,0,253.17c0,30.7-9.07,58.31-28.87,81.86-22.27,26.48-50.77,41.47-85.63,42.76-21.62.8-43.29.57-64.93.59q-97.71.09-195.43,0c-30.58,0-57.95-8.9-81.14-29.16s-37-45.46-41.28-75.79a166,166,0,0,1-1.34-22.85C2192.92,584.45,2193,543.17,2193,501.89Zm76.49.41q0,46.19,0,92.37a88.82,88.82,0,0,0,6.45,34.55A77.32,77.32,0,0,0,2347.39,677q96,0,191.89-.1a73.69,73.69,0,0,0,17.73-2.3c34.46-8.71,58.64-40.11,58.79-77.93q.38-93.86-.14-187.72a87.83,87.83,0,0,0-4.66-27.31c-8.37-24.54-25-41.35-49.93-49.72-12.29-4.12-24.85-3.63-37.44-3.63-57.63,0-115.26.15-172.89-.12-23.42-.11-43.46,7.49-59.46,24.5-15,16-21.87,35.33-21.82,57.23C2269.54,440.73,2269.48,471.52,2269.48,502.3ZM1723.9,253.42V8.72c0-6.52,0-6.53-6.66-6.54l-61.94,0c-7.85,0-7.85,0-7.86,7.85q-.14,161.57-.26,323.12-.06,207.5-.1,415c0,4.87,1.43,6.14,6.2,6.08,20.44-.25,40.88-.09,61.31-.09,10.4,0,10.4,0,10.33-10.26-.21-28.78-.48-57.57-.62-86.36q-.27-55.17-.39-110.34-.09-67.66.08-135.33a91.55,91.55,0,0,1,2-19.76c7.9-35.21,39-61.2,74.63-61.09,64,.21,128,.34,191.93,0,39.24-.24,75.56,32.16,76.57,73.67,1.43,58.39.8,116.82.9,175.23q.15,84.64-.07,169.3c0,4.08,1.44,5.16,5.25,5,6.31-.24,12.63,0,18.95,0,15.78,0,31.57-.07,47.35,0,3.34,0,5.17-.69,4.33-4.46a13.56,13.56,0,0,1-.06-3q0-184.27,0-368.54c0-25.4-5.91-49.18-20.05-70.31-23.48-35.08-56.23-54.77-99-55-87.63-.4-175.27-.13-262.91-.08a63.15,63.15,0,0,0-11.91.9c-9.09,1.75-18.1,3.92-28.1,6.13Z"/>
</svg>
