<svg xmlns="http://www.w3.org/2000/svg" viewBox="0 0 115.822 46.407">
  <g id="ebay" transform="translate(-0.1 -0.1)">
    <path id="e" d="M15.077,26.308C6.907,26.308.1,29.774.1,40.23c0,8.284,4.577,13.5,15.188,13.5,12.489,0,13.289-8.227,13.289-8.227H22.525s-1.3,4.43-7.607,4.43c-5.139,0-8.835-3.471-8.835-8.337H29.209V38.543c0-4.814-3.056-12.234-14.133-12.234Zm-.211,3.9c4.892,0,8.227,3,8.227,7.488H6.217C6.217,32.931,10.57,30.211,14.866,30.211Z" transform="translate(0 -16.083)" fill="white"/>
    <path id="b" d="M75.23.1V32.4c0,1.833-.131,4.407-.131,4.407h5.772s.207-1.849.207-3.538c0,0,2.852,4.461,10.605,4.461,8.165,0,13.711-5.669,13.711-13.79,0-7.555-5.094-13.632-13.7-13.632-8.057,0-10.56,4.351-10.56,4.351V.1ZM90.207,14.3c5.545,0,9.07,4.115,9.07,9.637,0,5.922-4.072,9.8-9.031,9.8-5.918,0-9.11-4.621-9.11-9.743C81.136,19.216,84,14.3,90.207,14.3Z" transform="translate(-46.025 0)" fill="white"/>
    <path id="a" d="M166.855,26.308c-12.29,0-13.078,6.729-13.078,7.8h6.117s.321-3.929,6.539-3.929c4.041,0,7.172,1.85,7.172,5.405v1.266h-7.172c-9.521,0-14.555,2.785-14.555,8.438,0,5.563,4.651,8.589,10.936,8.589,8.565,0,11.325-4.733,11.325-4.733,0,1.882.145,3.738.145,3.738h5.438s-.211-2.3-.211-3.771V36.4c0-8.337-6.725-10.092-12.656-10.092Zm6.75,14.344V42.34c0,2.2-1.358,7.673-9.354,7.673-4.378,0-6.256-2.185-6.256-4.72C158,40.682,164.318,40.652,173.605,40.652Z" transform="translate(-93.142 -16.083)" fill="white"/>
    <path id="y" d="M214.879,29.041h6.882l9.876,19.787,9.854-19.787h6.234L229.777,64.268h-6.539l5.179-9.82Z" transform="translate(-131.804 -17.76)" fill="white"/>
  </g>
</svg>
