<svg xmlns="http://www.w3.org/2000/svg" viewBox="0 0 103.405 47.664">
  <path id="lego" d="M63.926,165.089c-1.288,4.4-5.1,4.695-9.778,3.858h0c-.365.987-1.055,3.055-1.614,5.247a17.962,17.962,0,0,1,5.491-.71c2.649.065,4.342,1.163,4.342,3.353,0,5.31-5.869,6.869-9.94,6.869-4.47,0-8.4-2.545-8.4-7.434,0-5.73,3.107-14.42,6.022-20.209,3.58-7.109,7.238-8.054,13.539-8.054,2.768,0,5.959,1.184,5.959,3.8,0,3.623-3.07,5.005-6.114,5.18a42.69,42.69,0,0,1-4.5.061,25.433,25.433,0,0,0-2.089,4.293C62.487,160.549,64.877,161.828,63.926,165.089Zm22.665-3.977c3.323-.26,5.153-2.406,5.6-6.062.615-4.98-3.578-6.891-8.895-6.891-8.861,0-12.34,5.422-15.656,13.17-1.559,3.64-3.524,9.86-3.524,13.822,0,5.56,3.385,8.577,8.838,8.577,7.965,0,13.6-6.354,15.2-14.266.5-2.437,1.106-7.005-5.082-6.753-3.141.129-5.036.824-6.034,4.032-1.028,3.307,2.7,3.4,2.7,3.4-.749,3.418-2.945,5.49-4.9,5.49-1.221,0-2.338-.527-1.96-3.113.551-3.777,4.091-12.971,5.724-15.265a4.011,4.011,0,0,1,3.263-2.008h0c1.87,0,1.688.989,1.249,2.247C81.858,161.087,85.661,161.184,86.591,161.112ZM42.356,148.35a6.419,6.419,0,0,0-5.983,3.528c-3.113,4.972-9.726,19.972-9.586,26.456.08,3.706,2.95,5.167,6.143,5.245,4.4.1,9.471-1.133,9.991-6.658.173-1.846-1.213-3.839-6.726-2.881,2.3-5.156,9.322-18.358,9.426-22.7C45.66,149.709,45,148.35,42.356,148.35Zm79.151,13.225h0c-.492,3.955-3.165,11.284-4.585,14.213-3.811,7.852-8.9,13.884-18.711,13.884-5.24,0-9.551-1.671-12.071-4.884a19.722,19.722,0,0,1-13.179,4.929,15.4,15.4,0,0,1-9.693-3.118,18.845,18.845,0,0,1-10.837,3.093,15.547,15.547,0,0,1-9.168-2.754,18.112,18.112,0,0,1-10.557,2.625c-7.021-.166-11.869-4.619-12.008-11.085-.183-8.589,7.05-24.31,10.459-29.754a12.657,12.657,0,0,1,11.216-6.445c5.179,0,7.056,1.479,7.98,3.362,4-3.393,9.293-3.589,13.064-3.589a13.362,13.362,0,0,1,9,2.874,20.389,20.389,0,0,1,10.781-2.8c5.361,0,9.343,1.247,12.121,3.993a18.01,18.01,0,0,1,11.837-3.925c6,0,9.955,2.165,12.275,5.394C122.695,152.145,122.11,156.729,121.508,161.575Zm-14.415-16.663h0a15.311,15.311,0,0,0-12.29,5.41,7.031,7.031,0,0,0-1.273-1.9c-2.18-2.464-5.684-3.613-10.387-3.613a16.951,16.951,0,0,0-11.086,3.7c-1.381-2.246-4.674-3.733-8.644-3.733-5.187,0-10.839.734-14.193,6.137-.081-1.945-.256-2.975-1.35-4.132C46.541,145.367,44.39,145,42.295,145a9.652,9.652,0,0,0-8.756,5.064c-3,4.79-10.269,20.551-10.105,28.185.107,4.931,3.414,8.484,9.335,8.624,4.626.111,8.254-1.126,10.563-3.456a11.98,11.98,0,0,0,9.013,3.571c4.211,0,8.447-1.265,10.95-4.028,2.108,2.59,5.424,4.1,9.691,4.076a17.475,17.475,0,0,0,13.674-6.725c1.756,4.779,6.206,6.677,11.069,6.677,10.655,0,15.334-7.328,19.235-18.912a44.345,44.345,0,0,0,2.246-10.626C119.529,151.357,116.952,144.912,107.093,144.912Zm8.243,16.869a53.461,53.461,0,0,1-5.331,14.295c-3.732,6.71-8.264,7.65-12.221,7.6s-8.417-1.509-8.452-7.613c-.024-4.383,1.866-10.569,3.471-14.624C95.6,154.091,98.46,148.1,107.5,148.2,118.036,148.33,116.156,157.7,115.337,161.782ZM106.4,155.4a2.476,2.476,0,0,0-2.4,1.259c-1.594,2.065-6.255,14.8-6.172,17.34a1.6,1.6,0,0,0,1.658,1.711c1.289,0,2.006-.89,2.64-1.965,1.467-2.482,5.591-13.739,5.7-16.553C107.856,156.367,107.719,155.412,106.4,155.4Zm15.152-10.85c.378,0,.5-.186.5-.378,0-.242-.194-.372-.566-.372h-.509v.75ZM122.8,146.1l-.682,0-.221-.447a2.5,2.5,0,0,0-.372-.536c-.11-.11-.206-.137-.448-.137h-.1v1.12h-.565v-2.735h1.363c.587,0,.862.329.862.765a.755.755,0,0,1-.738.764v.015c.235.082.312.159.587.64l.317.55Zm-3.459-1.377a2.121,2.121,0,1,0,2.114-2.119A2.118,2.118,0,0,0,119.345,144.725Zm2.114-2.64h.015a2.632,2.632,0,0,1,2.625,2.64v.011a2.638,2.638,0,1,1-2.64-2.65Z" transform="translate(-20.694 -142.053)" fill="white"/>
</svg>
