<svg id="a" xmlns="http://www.w3.org/2000/svg" viewBox="0 0 28.57 7.01"><path fill="white" id="b" d="M3.43,0c7.23,0,14.47,0,21.7,0,.03,0,.06,.01,.09,.02,.28,.05,.58,.08,.85,.16,1.28,.41,2.1,1.26,2.41,2.57,.04,.18,.06,.36,.09,.54v.45s-.02,.07-.02,.11c-.12,1.11-.64,1.98-1.59,2.58-.65,.42-1.38,.58-2.15,.58-1.42,0-2.85,0-4.27,0-5.58,0-11.17,0-16.75,0-.61,0-1.21-.1-1.77-.36C.64,6-.1,4.72,.01,3.21,.12,1.76,1.14,.48,2.74,.11,2.97,.06,3.2,.04,3.43,0ZM14.27,6.16c3.49,0,6.97,0,10.46,0,.19,0,.38,0,.57-.03,1.43-.17,2.38-1.22,2.38-2.58,0-1.06-.46-1.86-1.41-2.36-.48-.25-1.01-.32-1.54-.32-6.96,0-13.93,0-20.89,0-.24,0-.48,.02-.71,.05C1.8,1.11,.89,2.14,.88,3.47c0,.99,.4,1.77,1.27,2.29,.5,.29,1.04,.39,1.62,.39,3.5,0,7.01,0,10.51,0ZM3.88,2.88s.04,.06,.06,.1c.43,.69,.86,1.38,1.29,2.07,.05,.07,.09,.1,.18,.1,.26,0,.52,0,.78,0,.04,0,.08,0,.12,0V1.86h-1.02v2.25s-.07-.06-.09-.1c-.43-.69-.85-1.38-1.28-2.06-.02-.04-.06-.09-.1-.09-.33,0-.65,0-.98,0v3.29h1.02V2.89s.01,0,.02,0Zm17.7,.19V1.86h.97v3.28h-.97s0-.06-.01-.11c-.32,.19-.66,.24-1.01,.13-.24-.08-.44-.22-.59-.43-.3-.4-.3-.95,0-1.36,.18-.25,.43-.42,.74-.48,.31-.06,.59,.02,.87,.18Zm0,.97s0,0,0,0c0-.15,0-.3,0-.46-.01-.21-.16-.35-.36-.36-.23,0-.39,.1-.41,.32-.02,.33-.02,.66,0,.99,.01,.22,.18,.33,.4,.32,.2,0,.35-.14,.36-.35,0-.16,0-.31,0-.47Zm-10.26,1.1s0-.03,0-.05c0-.41,0-.82,0-1.22,0-.24-.09-.47-.26-.65-.41-.43-1.07-.48-1.56-.11-.03,.02-.05,.04-.1,.08v-.22h-.97v2.17h.97s0-.09,0-.13c0-.42,0-.85,0-1.27,0-.25,.22-.44,.48-.44,.26,0,.45,.19,.45,.44,0,.3,0,.6,0,.9,0,.16,0,.33,0,.5h.97Zm8.11-.05c0-.39,0-.79,0-1.18,0-.21-.06-.42-.18-.6-.34-.48-1.08-.6-1.58-.24-.04,.03-.09,.06-.14,.1,0-.08,0-.14-.01-.21h-.97v2.17h.98s0-.09,0-.13c0-.42,0-.85,0-1.27,0-.12,.04-.22,.13-.3,.14-.14,.36-.18,.54-.1,.19,.08,.27,.23,.27,.43,0,.41,0,.82,0,1.24,0,.04,0,.09,0,.13h.97s0-.04,0-.05Zm4.87,.18c-.43-.02-.82-.16-1.13-.51-.37-.42-.37-1.01-.01-1.43,.59-.69,1.79-.69,2.37,0,.44,.52,.32,1.26-.27,1.66-.27,.19-.61,.29-.96,.28Zm-.38-1.23h0c0,.16,0,.31,0,.47,0,.09,.02,.18,.05,.26,.06,.15,.18,.23,.35,.23,.16,0,.29-.07,.36-.22,.04-.09,.06-.19,.06-.29,0-.3,0-.6,0-.9,0-.09-.02-.19-.06-.28-.11-.26-.47-.32-.64-.09-.07,.09-.1,.23-.12,.35-.02,.16,0,.32,0,.48Zm-7.7,.02h-1.87c0,.2-.01,.39,0,.57,.02,.24,.21,.39,.43,.38,.22,0,.38-.18,.39-.42,0-.06,0-.12,0-.19h.98c-.07,.2-.18,.35-.33,.49-.59,.55-1.65,.52-2.21-.05-.46-.48-.43-1.17,.07-1.62,.6-.54,1.62-.51,2.19,.06,.18,.18,.3,.4,.34,.66,0,.04,0,.08,0,.13Zm-1.05-.34c0-.23,.01-.44-.21-.57-.15-.09-.31-.08-.45,.02-.19,.14-.18,.34-.17,.55h.83Zm-2.3-.76h.52v-.33h-.53v-.43h-.99v.44c-.16,0-.31,0-.46,0-.03,0-.08,.03-.08,.06,0,.08,0,.17,0,.27h.55v2.18h.99V2.96Zm-5.01,2.18V2.97h-.97v2.17h.97Zm0-2.63v-.66c-.31,0-.61,0-.91,0-.02,0-.04,0-.06,0,0,.03,0,.05,0,.07,0,.19,0,.38,0,.59h.98Zm17.48-.26c0-.36,.29-.64,.66-.64,.36,0,.66,.29,.66,.64,0,.36-.3,.66-.66,.65-.37,0-.66-.29-.66-.66Zm1.19,.01c0-.31-.23-.55-.53-.55-.3,0-.53,.23-.54,.54,0,.31,.23,.55,.53,.55,.3,0,.53-.23,.53-.54Zm-.42,.04s.07-.03,.09-.04c.08-.04,.1-.12,.09-.2,0-.08-.04-.15-.13-.16-.14-.02-.28-.02-.42-.03,0,.24,0,.46,0,.68,0,.09,.05,.07,.11,.06v-.3c.09-.03,.15-.01,.18,.07,.03,.06,.07,.13,.11,.18,.03,.03,.08,.05,.12,.08l.02-.03c-.06-.1-.12-.19-.19-.3Zm-.24-.1v-.23c.07,0,.14,0,.2,0,.07,0,.11,.04,.11,.11,0,.07-.04,.11-.11,.11h-.21Z"/></svg>
